<svg width="296" height="291" viewBox="0 0 296 291" fill="none" xmlns="http://www.w3.org/2000/svg">
<path d="M48 0L59.2257 34.5491H95.5528L66.1636 55.9017L77.3893 90.4509L48 69.0983L18.6107 90.4509L29.8364 55.9017L0.447174 34.5491H36.7743L48 0Z" fill="#FF0000"/>
<path d="M148 0L159.226 34.5491H195.553L166.164 55.9017L177.389 90.4509L148 69.0983L118.611 90.4509L129.836 55.9017L100.447 34.5491H136.774L148 0Z" fill="#FFD600"/>
<path d="M248 0L259.226 34.5491H295.553L266.164 55.9017L277.389 90.4509L248 69.0983L218.611 90.4509L229.836 55.9017L200.447 34.5491H236.774L248 0Z" fill="#FF0000"/>
<path d="M48 200L59.2257 234.549H95.5528L66.1636 255.902L77.3893 290.451L48 269.098L18.6107 290.451L29.8364 255.902L0.447174 234.549H36.7743L48 200Z" fill="#FF0000"/>
<path d="M148 200L159.226 234.549H195.553L166.164 255.902L177.389 290.451L148 269.098L118.611 290.451L129.836 255.902L100.447 234.549H136.774L148 200Z" fill="#FFD600"/>
<path d="M248 200L259.226 234.549H295.553L266.164 255.902L277.389 290.451L248 269.098L218.611 290.451L229.836 255.902L200.447 234.549H236.774L248 200Z" fill="#FF0000"/>
<path d="M48 100L59.2257 134.549H95.5528L66.1636 155.902L77.3893 190.451L48 169.098L18.6107 190.451L29.8364 155.902L0.447174 134.549H36.7743L48 100Z" fill="#FFD600"/>
<path d="M148 100L159.226 134.549H195.553L166.164 155.902L177.389 190.451L148 169.098L118.611 190.451L129.836 155.902L100.447 134.549H136.774L148 100Z" fill="#000AFF"/>
<path d="M248 100L259.226 134.549H295.553L266.164 155.902L277.389 190.451L248 169.098L218.611 190.451L229.836 155.902L200.447 134.549H236.774L248 100Z" fill="#FFD600"/>
</svg>
